<?xml version="1.0" encoding="utf-8"?>
<!-- Generator: Adobe Illustrator 22.0.0, SVG Export Plug-In . SVG Version: 6.00 Build 0)  -->
<svg version="1.1" id="Camada_1" xmlns="http://www.w3.org/2000/svg" xmlns:xlink="http://www.w3.org/1999/xlink" x="0px" y="0px"
	 viewBox="0 0 83.4 82.9" style="enable-background:new 0 0 83.4 82.9;" xml:space="preserve">
<style type="text/css">
	.st0{fill:#18153D;}
</style>
<title>logo</title>
<g id="Camada_2_1_">
	<g id="Camada_1-2">
		<path class="st0" d="M62.1,51C52.5,51,48,57.9,48,69.2V83c10.1-1.6,19.4-6.8,25.9-14.7v-3.5C73.9,57.4,71,51,62.1,51z"/>
		<path class="st0" d="M41.7,0C18.7,0,0,18.7,0,41.7C0,61,13.3,77.8,32.1,82.3V54.6c0-3.8,0-8,0-11.7c-0.1-4.2,3.3-7.7,7.5-7.7h0.1
			h0.2c4.1,0,7.5,3.1,7.8,7.2l0,0c0.1,1.3,1.2,2.3,2.5,2.2c0.5,0,1-0.2,1.4-0.6c3.2-3,8.2-5.5,15.9-5.5c6.7,0,12.1,2,15.9,5.7
			c0.1-0.8,0.1-1.7,0.1-2.5C83.4,18.7,64.7,0,41.7,0z M14.1,54.1c0-4.2-3.4-7.6-7.6-7.6c4.2,0,7.6-3.4,7.6-7.6
			c0,4.2,3.4,7.6,7.6,7.6C17.5,46.5,14.1,49.9,14.1,54.1L14.1,54.1z M25.2,38.9c0-8.4-6.8-15.2-15.2-15.2c8.4,0,15.2-6.8,15.2-15.2
			l0,0c0,8.4,6.8,15.2,15.2,15.2l0,0C32,23.7,25.2,30.5,25.2,38.9L25.2,38.9z"/>
	</g>
</g>
</svg>
